<mxfile host="app.diagrams.net" modified="2023-08-30T04:21:31.298Z" agent="Mozilla/5.0 (Windows NT 10.0; Win64; x64) AppleWebKit/537.36 (KHTML, like Gecko) Chrome/114.0.0.0 Safari/537.36 OPR/100.0.0.0" version="21.6.9" etag="HVy8gO4KCBgJCmaLvx3Y" type="github">
  <diagram name="PÃ¡gina-1" id="f1QcKwjQMnp9C9y3bNJq">
    <mxGraphModel>
      <root>
        <mxCell id="0" />
        <mxCell id="1" parent="0" />
      </root>
    </mxGraphModel>
  </diagram>
</mxfile>
